<mxfile host="65bd71144e">
    <diagram id="ABNCZyfbNFh-MfdMv4a-" name="Page-1">
        <mxGraphModel dx="1561" dy="566" grid="1" gridSize="10" guides="1" tooltips="1" connect="1" arrows="1" fold="1" page="1" pageScale="1" pageWidth="827" pageHeight="1169" math="0" shadow="0">
            <root>
                <mxCell id="0"/>
                <mxCell id="1" parent="0"/>
                <mxCell id="18" value="" style="rounded=1;whiteSpace=wrap;html=1;fillColor=#eeeeee;strokeColor=none;" parent="1" vertex="1">
                    <mxGeometry x="-10" width="480" height="120" as="geometry"/>
                </mxCell>
                <mxCell id="14" style="edgeStyle=none;html=1;exitX=0.5;exitY=0;exitDx=0;exitDy=0;entryX=0.5;entryY=1;entryDx=0;entryDy=0;endArrow=none;endFill=0;strokeColor=default;strokeWidth=1;startArrow=classicThin;startFill=1;" parent="1" source="5" target="7" edge="1">
                    <mxGeometry relative="1" as="geometry"/>
                </mxCell>
                <mxCell id="26" style="edgeStyle=none;html=1;exitX=1;exitY=0.5;exitDx=0;exitDy=0;fontSize=18;endArrow=none;endFill=0;strokeColor=default;strokeWidth=2;" parent="1" source="5" target="22" edge="1">
                    <mxGeometry relative="1" as="geometry"/>
                </mxCell>
                <mxCell id="38" style="edgeStyle=none;html=1;exitX=0;exitY=0.5;exitDx=0;exitDy=0;entryX=1;entryY=0.5;entryDx=0;entryDy=0;startArrow=classicThin;startFill=1;endArrow=none;endFill=0;" parent="1" source="5" target="9" edge="1">
                    <mxGeometry relative="1" as="geometry">
                        <Array as="points">
                            <mxPoint x="120" y="285"/>
                            <mxPoint x="120" y="245"/>
                        </Array>
                    </mxGeometry>
                </mxCell>
                <mxCell id="5" value="Java library" style="rounded=1;whiteSpace=wrap;html=1;fillColor=#b1ddf0;strokeColor=default;" parent="1" vertex="1">
                    <mxGeometry x="160" y="250" width="140" height="70" as="geometry"/>
                </mxCell>
                <mxCell id="13" style="edgeStyle=none;html=1;exitX=0.5;exitY=0;exitDx=0;exitDy=0;exitPerimeter=0;strokeColor=default;strokeWidth=1;endArrow=none;endFill=0;startArrow=classicThin;startFill=1;" parent="1" source="6" target="5" edge="1">
                    <mxGeometry relative="1" as="geometry"/>
                </mxCell>
                <mxCell id="6" value="KADAI DB" style="shape=cylinder3;whiteSpace=wrap;html=1;boundedLbl=1;backgroundOutline=1;size=15;fillColor=#b1ddf0;strokeColor=#10739e;" parent="1" vertex="1">
                    <mxGeometry x="175" y="340" width="110" height="70" as="geometry"/>
                </mxCell>
                <mxCell id="15" style="edgeStyle=none;html=1;exitX=0.5;exitY=0;exitDx=0;exitDy=0;entryX=0.5;entryY=1;entryDx=0;entryDy=0;endArrow=none;endFill=0;strokeColor=default;strokeWidth=1;startArrow=classicThin;startFill=1;" parent="1" source="7" target="11" edge="1">
                    <mxGeometry relative="1" as="geometry"/>
                </mxCell>
                <mxCell id="16" style="edgeStyle=none;html=1;entryX=0.5;entryY=1;entryDx=0;entryDy=0;endArrow=none;endFill=0;strokeColor=default;strokeWidth=1;" parent="1" target="12" edge="1">
                    <mxGeometry relative="1" as="geometry">
                        <mxPoint x="230" y="140" as="sourcePoint"/>
                        <Array as="points">
                            <mxPoint x="390" y="140"/>
                        </Array>
                    </mxGeometry>
                </mxCell>
                <mxCell id="17" style="edgeStyle=none;html=1;endArrow=none;endFill=0;strokeColor=default;strokeWidth=1;entryX=0.5;entryY=1;entryDx=0;entryDy=0;" parent="1" target="10" edge="1">
                    <mxGeometry relative="1" as="geometry">
                        <mxPoint x="230" y="140" as="targetPoint"/>
                        <mxPoint x="230" y="140" as="sourcePoint"/>
                        <Array as="points">
                            <mxPoint x="230" y="140"/>
                            <mxPoint x="70" y="140"/>
                        </Array>
                    </mxGeometry>
                </mxCell>
                <mxCell id="36" style="edgeStyle=none;html=1;exitX=0;exitY=0.5;exitDx=0;exitDy=0;entryX=1;entryY=0.5;entryDx=0;entryDy=0;startArrow=classicThin;startFill=1;endArrow=none;endFill=0;" parent="1" source="7" target="9" edge="1">
                    <mxGeometry relative="1" as="geometry">
                        <Array as="points">
                            <mxPoint x="120" y="195"/>
                            <mxPoint x="120" y="245"/>
                        </Array>
                    </mxGeometry>
                </mxCell>
                <mxCell id="7" value="REST Service" style="rounded=1;whiteSpace=wrap;html=1;fillColor=#b1ddf0;strokeColor=default;" parent="1" vertex="1">
                    <mxGeometry x="160" y="160" width="140" height="70" as="geometry"/>
                </mxCell>
                <mxCell id="39" style="edgeStyle=none;html=1;exitX=0;exitY=0.5;exitDx=0;exitDy=0;entryX=1;entryY=0.25;entryDx=0;entryDy=0;startArrow=none;startFill=0;endArrow=classicThin;endFill=1;" parent="1" source="8" target="5" edge="1">
                    <mxGeometry relative="1" as="geometry">
                        <Array as="points">
                            <mxPoint x="330" y="235"/>
                            <mxPoint x="330" y="268"/>
                        </Array>
                    </mxGeometry>
                </mxCell>
                <mxCell id="43" style="edgeStyle=none;html=1;exitX=0;exitY=0.5;exitDx=0;exitDy=0;entryX=1;entryY=0.5;entryDx=0;entryDy=0;" edge="1" parent="1" source="8" target="7">
                    <mxGeometry relative="1" as="geometry">
                        <Array as="points">
                            <mxPoint x="330" y="235"/>
                            <mxPoint x="330" y="195"/>
                        </Array>
                    </mxGeometry>
                </mxCell>
                <mxCell id="8" value="Custom JavaEE Client" style="rounded=1;whiteSpace=wrap;html=1;fillColor=#fad7ac;strokeColor=#b46504;" parent="1" vertex="1">
                    <mxGeometry x="380" y="200" width="140" height="70" as="geometry"/>
                </mxCell>
                <mxCell id="9" value="Custom Spring Client" style="rounded=1;whiteSpace=wrap;html=1;fillColor=#fad7ac;strokeColor=#b46504;" parent="1" vertex="1">
                    <mxGeometry x="-60" y="210" width="140" height="70" as="geometry"/>
                </mxCell>
                <mxCell id="10" value="KADAI Workplace" style="rounded=1;whiteSpace=wrap;html=1;fillColor=#bac8d3;strokeColor=default;" parent="1" vertex="1">
                    <mxGeometry y="25" width="140" height="70" as="geometry"/>
                </mxCell>
                <mxCell id="11" value="KADAI Admin" style="rounded=1;whiteSpace=wrap;html=1;fillColor=#bac8d3;strokeColor=default;" parent="1" vertex="1">
                    <mxGeometry x="160" y="25" width="140" height="70" as="geometry"/>
                </mxCell>
                <mxCell id="12" value="KADAI Monitor" style="rounded=1;whiteSpace=wrap;html=1;fillColor=#bac8d3;strokeColor=default;" parent="1" vertex="1">
                    <mxGeometry x="320" y="25" width="140" height="70" as="geometry"/>
                </mxCell>
                <mxCell id="19" value="&lt;font style=&quot;font-size: 18px&quot;&gt;KADAI Web&lt;/font&gt;" style="rounded=0;whiteSpace=wrap;html=1;fillColor=none;strokeColor=none;" parent="1" vertex="1">
                    <mxGeometry x="-100" y="40" width="80" height="40" as="geometry"/>
                </mxCell>
                <mxCell id="21" value="" style="shape=curlyBracket;whiteSpace=wrap;html=1;rounded=1;fontSize=18;strokeColor=default;" parent="1" vertex="1">
                    <mxGeometry x="-30" width="20" height="120" as="geometry"/>
                </mxCell>
                <mxCell id="22" value="Adapter" style="rounded=1;whiteSpace=wrap;html=1;fillColor=#b1ddf0;strokeColor=#10739e;" parent="1" vertex="1">
                    <mxGeometry x="550" y="250" width="140" height="70" as="geometry"/>
                </mxCell>
                <mxCell id="25" style="edgeStyle=none;html=1;exitX=0.5;exitY=0;exitDx=0;exitDy=0;entryX=0.5;entryY=1;entryDx=0;entryDy=0;fontSize=18;endArrow=classicThin;endFill=1;strokeColor=default;strokeWidth=1;startArrow=classicThin;startFill=1;" parent="1" source="23" target="22" edge="1">
                    <mxGeometry relative="1" as="geometry"/>
                </mxCell>
                <mxCell id="23" value="Camunda" style="rounded=1;whiteSpace=wrap;html=1;fillColor=#fad7ac;strokeColor=#b46504;" parent="1" vertex="1">
                    <mxGeometry x="550" y="370" width="140" height="70" as="geometry"/>
                </mxCell>
                <mxCell id="27" value="&lt;div&gt;&lt;b style=&quot;font-size: 12px&quot;&gt;Legend:&lt;/b&gt;&lt;/div&gt;" style="rounded=0;whiteSpace=wrap;html=1;fontSize=18;strokeColor=default;align=left;verticalAlign=top;spacingLeft=8;" parent="1" vertex="1">
                    <mxGeometry x="540" y="10" width="180" height="170" as="geometry"/>
                </mxCell>
                <mxCell id="28" value="" style="rounded=1;whiteSpace=wrap;html=1;fillColor=#fad7ac;strokeColor=#b46504;" parent="1" vertex="1">
                    <mxGeometry x="550" y="50" width="50" height="30" as="geometry"/>
                </mxCell>
                <mxCell id="29" value="External&lt;br&gt;(not included in KADAI)" style="rounded=0;whiteSpace=wrap;html=1;fontSize=12;strokeColor=none;" parent="1" vertex="1">
                    <mxGeometry x="600" y="50" width="90" height="30" as="geometry"/>
                </mxCell>
                <mxCell id="30" value="" style="rounded=1;whiteSpace=wrap;html=1;fillColor=#b1ddf0;strokeColor=default;" parent="1" vertex="1">
                    <mxGeometry x="550" y="95" width="50" height="25" as="geometry"/>
                </mxCell>
                <mxCell id="31" value="Part of the Application" style="rounded=0;whiteSpace=wrap;html=1;fontSize=12;strokeColor=none;" parent="1" vertex="1">
                    <mxGeometry x="600" y="95" width="90" height="30" as="geometry"/>
                </mxCell>
                <mxCell id="32" value="" style="rounded=1;whiteSpace=wrap;html=1;fillColor=#bac8d3;strokeColor=default;" parent="1" vertex="1">
                    <mxGeometry x="550" y="140" width="50" height="30" as="geometry"/>
                </mxCell>
                <mxCell id="34" value="Included in frontend of the Application" style="rounded=0;whiteSpace=wrap;html=1;fontSize=12;strokeColor=none;" parent="1" vertex="1">
                    <mxGeometry x="600" y="140" width="90" height="30" as="geometry"/>
                </mxCell>
                <mxCell id="41" style="edgeStyle=none;html=1;exitX=0.5;exitY=0;exitDx=0;exitDy=0;startArrow=classicThin;startFill=1;endArrow=none;endFill=0;" parent="1" source="40" edge="1">
                    <mxGeometry relative="1" as="geometry">
                        <mxPoint x="620" y="320" as="targetPoint"/>
                        <Array as="points">
                            <mxPoint x="780" y="350"/>
                            <mxPoint x="620" y="350"/>
                        </Array>
                    </mxGeometry>
                </mxCell>
                <mxCell id="40" value="Other Systems" style="rounded=1;whiteSpace=wrap;html=1;fillColor=#fad7ac;strokeColor=#b46504;" parent="1" vertex="1">
                    <mxGeometry x="710" y="370" width="140" height="70" as="geometry"/>
                </mxCell>
            </root>
        </mxGraphModel>
    </diagram>
</mxfile>